<?xml version="1.0" encoding="utf-8"?>
<!-- Generator: Adobe Illustrator 21.0.0, SVG Export Plug-In . SVG Version: 6.00 Build 0)  -->
<svg version="1.1" id="Layer_1" xmlns="http://www.w3.org/2000/svg" xmlns:xlink="http://www.w3.org/1999/xlink" x="0px" y="0px"
	 width="266px" height="266px" viewBox="0 0 266 266" style="enable-background:new 0 0 266 266;" xml:space="preserve">
<style type="text/css">
	.st0{fill:#FFFFFF;}
	.st1{fill-rule:evenodd;clip-rule:evenodd;fill:#E11B22;}
	.st2{fill-rule:evenodd;clip-rule:evenodd;fill:#201B50;}
	.st3{fill:#E11B22;}
</style>
<g>
	<path class="st0" d="M256.8,131.7c0,69.3-56.2,125.4-125.4,125.4C62.1,257.1,6,200.9,6,131.7C6,62.4,62.1,6.2,131.4,6.2
		C200.7,6.2,256.8,62.4,256.8,131.7z"/>
	<path class="st1" d="M145.6,97.1c13,28.9-8.1,53.8-25.4,56.1c8,13.4,23.3,37.3,51.6,34.1c13.8-1.5,26.7-10.6,25.6-25.6
		c-0.6-7.9-7-12.4-15.6-14.2c5.9-11,11.9-21.9,17-33.4c-11.3,0-29.5-0.2-44.8-0.2c2.2-6.2,4.6-14.7,5.7-18.2c17.1,0,42.2,0,58.2,0
		c-6.1,10.7-11.3,22.3-17,33.4c7,4.4,12.9,11,14.9,19.2c5.1,20.4-9.1,35.1-19.9,41.2c-10.8,6.1-23.8,7.4-39.1,3.6
		c-17.5-4.4-31.4-19.9-39.9-33.7c-2.1-3.4-4.6-6.9-5.9-10.9c24.6,1.8,39.8-27.6,31.3-50.7C141.4,94.1,143.5,93.3,145.6,97.1z"/>
	<path class="st2" d="M107.8,139.8c-4.6,0-11.1-0.1-15.5-0.1c5,8.5,6.3,12.4,15.6,24.2c15.3,19.4,41.5,48.7,78.7,39.9
		c47.9-11.4,49.4-56.5,31.1-73.2c4-9.1,12.3-26.6,15.5-33c0.8-0.1,1.7-0.1,2.6,0.2c-3.9,8.2-10.4,22.3-14.8,32
		c17.1,20.2,14.6,44.7,0.7,60.7c-12.9,14.8-34.2,23.1-59.1,21c-43.8-3.7-74.3-41.2-94.5-71.8c-2.6,0-5.2,0-7.8,0
		c0,12.1,0,22.5-0.1,31.3c-6.5-0.5-15-2-23.3-0.7c-4,0.6-9.6,4.5-10.6-1.7c0.8-7.1,19.6-4.9,29.4-4.2c0.1-14.4,0.4-37.6,0.4-59.8
		c25.3,0,54.2-0.1,61.5-0.1c-0.8-6.1-4.3-10.9-17.3-10.9c-14-0.1-37.7,0.4-51.3,0.4c0.2,27.3-0.9,40.8,0,62.7
		c-7.1-2.3-16.5-1-22,0.7c6.2-20.3,5-72.7,5-81.7c20.8,0,61.8,0,72.8,0C144.5,75.8,147.3,139.8,107.8,139.8z M60.4,107.8l-0.1,22.4
		c0,0,23.6,0,39.9,0.2c14.2,0,18.6-12.3,17.6-22.7C113.2,107.6,60.4,107.8,60.4,107.8z"/>
	<g>
		<path class="st3" d="M4.2,132.6c0-71,57.6-128.6,128.6-128.6l0,0c71,0,128.6,57.6,128.6,128.6l0,0c0,71-57.6,128.6-128.6,128.6
			l0,0C61.8,261.2,4.2,203.6,4.2,132.6L4.2,132.6z M46,45.8C23.9,68,10.1,98.7,10.1,132.6l0,0c0,33.9,13.7,64.5,35.9,86.8l0,0
			c22.2,22.2,52.9,35.9,86.8,35.9l0,0c33.9,0,64.5-13.7,86.8-35.9l0,0c22.2-22.2,35.9-52.9,35.9-86.8l0,0
			c0-33.9-13.7-64.5-35.9-86.8l0,0c-22.2-22.2-52.9-35.9-86.8-35.9l0,0C98.9,9.9,68.3,23.6,46,45.8L46,45.8z"/>
	</g>
</g>
</svg>
